<svg width="39" height="38" viewBox="0 0 39 38" fill="none" xmlns="http://www.w3.org/2000/svg">
<path d="M21.1914 28.148C12.8891 28.148 8.18449 21.3979 8 10H12.1511C12.2434 18.2994 15.3798 21.8405 17.7782 22.5044V10H21.6526V17.1928C24.051 16.8608 26.5417 13.6517 27.3719 10H31.2463C30.6006 14.4264 27.8332 17.7461 25.896 19.074C27.8332 20.1806 30.9696 23.0577 32.0765 28.148H27.7409C26.8184 24.7176 24.5123 22.0618 21.4681 21.6192V28.148H21.1914Z" fill="white"/>
<path d="M38.032 19C38.032 29.2221 29.8316 37.5 19.7267 37.5C9.62179 37.5 1.42139 29.2221 1.42139 19C1.42139 8.77786 9.62179 0.5 19.7267 0.5C29.8316 0.5 38.032 8.77786 38.032 19Z" stroke="white"/>
</svg>
